<svg
            width="810"
            height="473"
            viewBox="0 0 810 473"
            fill="none"
            xmlns="http://www.w3.org/2000/svg"
          >
            <path
              d="M3.17432 0.113249L6.0611 3L3.17432 5.88675L0.287537 3L3.17432 0.113249ZM806.952 473L804.173 467.94L809.945 468.063L806.952 473ZM806.552 467.187C806.566 465.971 806.58 464.664 806.591 463.274L807.591 463.282C807.579 464.673 807.566 465.982 807.551 467.199L806.552 467.187ZM806.619 459.361C806.627 458.114 806.634 456.817 806.64 455.474L807.64 455.478C807.634 456.822 807.627 458.12 807.619 459.367L806.619 459.361ZM806.654 451.578C806.658 450.31 806.661 449.009 806.664 447.678L807.664 447.68C807.661 449.011 807.658 450.312 807.654 451.581L806.654 451.578ZM806.67 443.775C806.672 442.499 806.673 441.2 806.673 439.881L807.673 439.882C807.673 441.201 807.672 442.5 807.67 443.776L806.67 443.775ZM806.674 435.991C806.674 434.708 806.674 433.409 806.673 432.096L807.673 432.096C807.674 433.409 807.674 434.708 807.674 435.99L806.674 435.991ZM806.67 428.198C806.669 426.908 806.667 425.607 806.665 424.296L807.665 424.295C807.667 425.606 807.669 426.907 807.67 428.197L806.67 428.198ZM806.659 420.393C806.657 419.102 806.655 417.803 806.652 416.498L807.652 416.496C807.655 417.801 807.657 419.1 807.659 420.392L806.659 420.393ZM806.644 412.602C806.641 411.306 806.638 410.006 806.634 408.703L807.634 408.701C807.638 410.003 807.641 411.303 807.644 412.6L806.644 412.602ZM806.625 404.804C806.621 403.505 806.618 402.205 806.614 400.906L807.614 400.903C807.618 402.202 807.621 403.502 807.625 404.801L806.625 404.804ZM806.603 397.007C806.599 395.704 806.595 394.404 806.591 393.107L807.591 393.104C807.595 394.401 807.599 395.701 807.603 397.004L806.603 397.007ZM806.579 389.209C806.575 387.904 806.571 386.606 806.567 385.314L807.567 385.311C807.571 386.603 807.575 387.901 807.579 389.206L806.579 389.209ZM806.554 381.418C806.55 380.106 806.546 378.804 806.542 377.514L807.542 377.511C807.546 378.801 807.55 380.103 807.554 381.414L806.554 381.418ZM806.529 373.612C806.525 372.297 806.521 370.997 806.517 369.713L807.517 369.71C807.521 370.994 807.525 372.294 807.529 373.609L806.529 373.612ZM806.505 365.817C806.501 364.498 806.497 363.2 806.493 361.924L807.493 361.921C807.497 363.197 807.501 364.495 807.505 365.814L806.505 365.817ZM806.482 358.031C806.479 356.702 806.475 355.402 806.472 354.136L807.472 354.134C807.475 355.4 807.479 356.699 807.482 358.028L806.482 358.031ZM806.464 350.236C806.461 348.885 806.459 347.581 806.457 346.328L807.457 346.327C807.459 347.58 807.461 348.883 807.464 350.234L806.464 350.236ZM806.453 342.416C806.452 341.759 806.452 341.12 806.452 340.5H807.452C807.452 341.119 807.452 341.758 807.453 342.416L806.453 342.416ZM806.452 340.5C806.452 339.817 806.448 339.139 806.44 338.466L807.44 338.454C807.448 339.131 807.452 339.813 807.452 340.5H806.452ZM806.343 334.481C806.294 333.154 806.228 331.847 806.148 330.558L807.146 330.495C807.227 331.793 807.293 333.109 807.342 334.444L806.343 334.481ZM805.842 326.557C805.723 325.242 805.587 323.946 805.434 322.671L806.427 322.552C806.581 323.837 806.718 325.142 806.838 326.467L805.842 326.557ZM804.896 318.683C804.699 317.376 804.484 316.09 804.253 314.826L805.236 314.646C805.47 315.92 805.686 317.216 805.885 318.534L804.896 318.683ZM803.461 310.887C803.177 309.593 802.876 308.322 802.556 307.075L803.525 306.827C803.847 308.086 804.152 309.368 804.438 310.673L803.461 310.887ZM801.49 303.214C801.112 301.938 800.714 300.687 800.298 299.462L801.245 299.141C801.665 300.378 802.067 301.641 802.449 302.93L801.49 303.214ZM798.943 295.721C798.462 294.473 797.961 293.252 797.441 292.059L798.358 291.66C798.883 292.866 799.39 294.1 799.876 295.361L798.943 295.721ZM795.789 288.478C795.199 287.27 794.589 286.091 793.962 284.943L794.839 284.463C795.474 285.625 796.091 286.817 796.688 288.039L795.789 288.478ZM791.992 281.527C791.296 280.385 790.583 279.274 789.853 278.193L790.681 277.633C791.42 278.727 792.142 279.851 792.846 281.008L791.992 281.527ZM787.552 274.962C786.754 273.896 785.939 272.864 785.109 271.862L785.879 271.224C786.719 272.238 787.544 273.284 788.352 274.362L787.552 274.962ZM782.511 268.881C781.608 267.894 780.69 266.941 779.759 266.021L780.463 265.31C781.405 266.242 782.334 267.206 783.248 268.205L782.511 268.881ZM776.879 263.309C775.889 262.421 774.888 261.567 773.877 260.745L774.508 259.969C775.531 260.801 776.545 261.665 777.547 262.564L776.879 263.309ZM770.744 258.32C769.668 257.527 768.584 256.768 767.496 256.042L768.051 255.21C769.152 255.945 770.248 256.712 771.337 257.515L770.744 258.32ZM764.151 253.92C763.008 253.23 761.862 252.575 760.717 251.952L761.196 251.073C762.353 251.703 763.511 252.366 764.667 253.064L764.151 253.92ZM757.204 250.137C756.002 249.548 754.805 248.993 753.615 248.471L754.017 247.555C755.219 248.083 756.429 248.643 757.644 249.239L757.204 250.137ZM749.948 246.949C748.692 246.457 747.45 246 746.225 245.575L746.553 244.63C747.789 245.059 749.044 245.521 750.313 246.017L749.948 246.949ZM742.453 244.348C741.152 243.952 739.879 243.593 738.639 243.266L738.894 242.299C740.146 242.629 741.431 242.992 742.744 243.391L742.453 244.348ZM734.793 242.328C733.444 242.025 732.148 241.762 730.914 241.533L731.097 240.55C732.343 240.781 733.651 241.047 735.012 241.352L734.793 242.328ZM726.974 240.879C725.542 240.67 724.235 240.511 723.077 240.389L723.181 239.395C724.352 239.518 725.672 239.679 727.119 239.89L726.974 240.879ZM719.103 240.068C718.477 240.034 717.992 240.017 717.666 240.008C717.502 240.004 717.378 240.002 717.296 240.001C717.255 240.001 717.224 240 717.203 240C717.193 240 717.186 240 717.181 240C717.178 240 717.177 240 717.176 240C717.175 240 717.175 240 717.174 240C717.174 240 717.174 240 717.174 240C717.174 240 717.174 240 717.174 240C717.174 240 717.174 240 717.174 240C717.174 240 717.174 240 717.174 239.5C717.174 239 717.174 239 717.174 239C717.174 239 717.174 239 717.174 239C717.174 239 717.175 239 717.175 239C717.175 239 717.175 239 717.175 239C717.176 239 717.176 239 717.177 239C717.179 239 717.181 239 717.184 239C717.19 239 717.198 239 717.21 239C717.232 239 717.265 239.001 717.309 239.001C717.395 239.002 717.524 239.004 717.691 239.009C718.027 239.017 718.521 239.035 719.158 239.069L719.103 240.068ZM717.174 240H715.173V239H717.174V240ZM711.171 240H707.17V239H711.171V240ZM703.168 240H699.166V239H703.168V240ZM695.164 240H691.162V239H695.164V240ZM687.16 240H683.158V239H687.16V240ZM679.156 240H675.154V239H679.156V240ZM671.152 240H667.151V239H671.152V240ZM663.149 240H659.147V239H663.149V240ZM655.145 240H651.143V239H655.145V240ZM647.141 240H643.139V239H647.141V240ZM639.137 240H635.135V239H639.137V240ZM631.133 240H627.132V239H631.133V240ZM623.13 240H619.128V239H623.13V240ZM615.126 240H611.124V239H615.126V240ZM607.122 240H603.12V239H607.122V240ZM599.118 240H595.116V239H599.118V240ZM591.114 240H587.113V239H591.114V240ZM583.111 240H579.109V239H583.111V240ZM575.107 240H571.105V239H575.107V240ZM567.103 240H563.101V239H567.103V240ZM559.099 240H555.097V239H559.099V240ZM551.095 240H547.093V239H551.095V240ZM543.092 240H539.09V239H543.092V240ZM535.088 240H531.086V239H535.088V240ZM527.084 240H523.082V239H527.084V240ZM519.08 240H515.078V239H519.08V240ZM511.076 240H507.074V239H511.076V240ZM503.072 240H499.071V239H503.072V240ZM495.069 240H491.067V239H495.069V240ZM487.065 240H483.063V239H487.065V240ZM479.061 240H475.059V239H479.061V240ZM471.057 240H467.055V239H471.057V240ZM463.053 240H459.051V239H463.053V240ZM455.05 240H451.048V239H455.05V240ZM447.046 240H443.044V239H447.046V240ZM439.042 240H435.04V239H439.042V240ZM431.038 240H427.036V239H431.038V240ZM423.034 240H419.033V239H423.034V240ZM415.031 240H411.029V239H415.031V240ZM407.027 240H403.025V239H407.027V240ZM399.023 240H395.021V239H399.023V240ZM391.019 240H387.017V239H391.019V240ZM383.016 240H379.014V239H383.016V240ZM375.012 240H371.01V239H375.012V240ZM367.008 240H363.006V239H367.008V240ZM359.004 240H355.002V239H359.004V240ZM351 240H346.999V239H351V240ZM342.997 240H338.995V239H342.997V240ZM334.993 240H330.991V239H334.993V240ZM326.989 240H322.987V239H326.989V240ZM318.985 240H314.983V239H318.985V240ZM310.981 240H306.98V239H310.981V240ZM302.978 240H298.976V239H302.978V240ZM294.974 240H290.972V239H294.974V240ZM286.97 240H282.968V239H286.97V240ZM278.966 240H274.964V239H278.966V240ZM270.963 240H266.961V239H270.963V240ZM262.959 240H258.957V239H262.959V240ZM254.955 240H250.953V239H254.955V240ZM246.951 240H242.949V239H246.951V240ZM238.947 240H234.946V239H238.947V240ZM230.944 240H226.942V239H230.944V240ZM222.94 240H218.938V239H222.94V240ZM214.936 240H210.934V239H214.936V240ZM206.932 240H202.93V239H206.932V240ZM198.928 240H194.927V239H198.928V240ZM190.925 240H186.923V239H190.925V240ZM182.921 240H178.919V239H182.921V240ZM174.917 240H170.915V239H174.917V240ZM166.913 240H162.911V239H166.913V240ZM158.91 240H154.908V239H158.91V240ZM150.906 240H146.904V239H150.906V240ZM142.902 240H138.9V239H142.902V240ZM134.898 240H132.897V239H134.898V240ZM132.897 239.5C132.897 240 132.897 240 132.896 240C132.896 240 132.896 240 132.896 240C132.896 240 132.896 240 132.896 240C132.896 240 132.896 240 132.896 240C132.895 240 132.895 240 132.894 240C132.893 240 132.89 240 132.888 240C132.882 240 132.874 240 132.863 240C132.841 240 132.809 240 132.767 239.999C132.683 239.999 132.557 239.997 132.393 239.995C132.063 239.989 131.577 239.979 130.945 239.957L130.979 238.958C131.604 238.979 132.085 238.99 132.409 238.995C132.571 238.997 132.693 238.999 132.775 238.999C132.816 239 132.847 239 132.867 239C132.877 239 132.885 239 132.89 239C132.892 239 132.894 239 132.895 239C132.896 239 132.896 239 132.896 239C132.896 239 132.896 239 132.897 239C132.897 239 132.897 239 132.897 239.5ZM126.891 239.754C125.713 239.678 124.38 239.578 122.909 239.448L122.998 238.452C124.46 238.581 125.785 238.68 126.956 238.756L126.891 239.754ZM118.905 239.048C117.64 238.908 116.306 238.747 114.909 238.563L115.04 237.571C116.43 237.755 117.757 237.915 119.015 238.054L118.905 239.048ZM110.921 237.994C109.632 237.796 108.302 237.58 106.936 237.341L107.108 236.356C108.467 236.593 109.79 236.809 111.073 237.005L110.921 237.994ZM102.967 236.607C101.688 236.357 100.382 236.088 99.0543 235.799L99.2667 234.822C100.588 235.109 101.886 235.377 103.159 235.626L102.967 236.607ZM95.1351 234.903C93.845 234.594 92.5373 234.266 91.2147 233.918L91.4694 232.95C92.7846 233.297 94.0851 233.623 95.3683 233.931L95.1351 234.903ZM87.3494 232.854C86.077 232.488 84.7935 232.103 83.5012 231.699L83.7996 230.745C85.0844 231.146 86.3605 231.529 87.6257 231.892L87.3494 232.854ZM79.6592 230.447C78.405 230.021 77.1448 229.576 75.8803 229.111L76.2252 228.173C77.4817 228.634 78.7341 229.076 79.9807 229.5L79.6592 230.447ZM72.1202 227.674C70.8794 227.182 69.6364 226.669 68.3931 226.136L68.7871 225.217C70.022 225.746 71.2566 226.256 72.4893 226.745L72.1202 227.674ZM64.7261 224.504C63.5119 223.942 62.2991 223.361 61.0893 222.758L61.5351 221.863C62.736 222.461 63.9401 223.039 65.1457 223.596L64.7261 224.504ZM57.5195 220.913C56.3417 220.281 55.1686 219.628 54.0015 218.954L54.5019 218.088C55.6596 218.757 56.8235 219.404 57.9922 220.031L57.5195 220.913ZM50.5457 216.88C49.4121 216.175 48.2859 215.447 47.1687 214.697L47.7259 213.867C48.8335 214.61 49.9501 215.331 51.0743 216.031L50.5457 216.88ZM43.8563 212.389C42.7754 211.606 41.7046 210.802 40.6454 209.974L41.261 209.186C42.3104 210.006 43.3714 210.803 44.4427 211.579L43.8563 212.389ZM37.5145 207.431C36.4933 206.569 35.4849 205.684 34.4907 204.775L35.1652 204.037C36.1497 204.936 37.1483 205.813 38.1597 206.667L37.5145 207.431ZM31.5715 201.998C30.6208 201.056 29.6852 200.091 28.7659 199.101L29.4985 198.421C30.4081 199.4 31.3342 200.355 32.2753 201.287L31.5715 201.998ZM26.0892 196.097C25.2192 195.078 24.3663 194.036 23.5318 192.969L24.3194 192.353C25.145 193.408 25.9888 194.44 26.8497 195.448L26.0892 196.097ZM21.1257 189.753C20.3455 188.662 19.5841 187.547 18.8428 186.408L19.6809 185.862C20.4142 186.989 21.1674 188.092 21.9391 189.171L21.1257 189.753ZM16.7299 183.002C16.0469 181.846 15.3841 180.667 14.7424 179.464L15.6248 178.993C16.2596 180.184 16.9153 181.35 17.5909 182.494L16.7299 183.002ZM12.937 175.897C12.3561 174.686 11.7961 173.452 11.258 172.195L12.1773 171.802C12.7098 173.046 13.2639 174.266 13.8386 175.464L12.937 175.897ZM9.76398 168.495C9.28723 167.241 8.83173 165.965 8.39832 164.667L9.34686 164.35C9.77594 165.636 10.2269 166.899 10.6987 168.14L9.76398 168.495ZM7.21002 160.859C6.83649 159.575 6.48401 158.27 6.15326 156.943L7.1236 156.702C7.45117 158.015 7.80035 159.308 8.17029 160.58L7.21002 160.859ZM5.25769 153.046C4.98358 151.744 4.72992 150.423 4.49738 149.082L5.48267 148.912C5.7132 150.241 5.9646 151.55 6.23627 152.84L5.25769 153.046ZM3.87744 145.101C3.69684 143.795 3.53571 142.471 3.39465 141.128L4.38916 141.024C4.52905 142.355 4.6889 143.669 4.86804 144.964L3.87744 145.101ZM3.03314 137.059C2.93848 135.759 2.86212 134.443 2.80457 133.11L3.80365 133.067C3.86078 134.39 3.93652 135.696 4.03052 136.986L3.03314 137.059ZM2.6889 129.062C2.6792 128.379 2.67432 127.691 2.67432 127H3.67432C3.67432 127.687 3.67914 128.369 3.68878 129.047L2.6889 129.062ZM2.67432 127V125.062H3.67432V127H2.67432ZM2.67432 121.188V117.312H3.67432V121.188H2.67432ZM2.67432 113.438V109.562H3.67432V113.438H2.67432ZM2.67432 105.688V101.812H3.67432V105.688H2.67432ZM2.67432 97.9375V94.0625H3.67432V97.9375H2.67432ZM2.67432 90.1875V86.3125H3.67432V90.1875H2.67432ZM2.67432 82.4375V78.5625H3.67432V82.4375H2.67432ZM2.67432 74.6875V70.8125H3.67432V74.6875H2.67432ZM2.67432 66.9375V63.0625H3.67432V66.9375H2.67432ZM2.67432 59.1875V55.3125H3.67432V59.1875H2.67432ZM2.67432 51.4375V47.5625H3.67432V51.4375H2.67432ZM2.67432 43.6875V39.8125H3.67432V43.6875H2.67432ZM2.67432 35.9375V32.0625H3.67432V35.9375H2.67432ZM2.67432 28.1875V24.3125H3.67432V28.1875H2.67432ZM2.67432 20.4375V16.5625H3.67432V20.4375H2.67432ZM2.67432 12.6875V8.8125H3.67432V12.6875H2.67432ZM2.67432 4.9375V3H3.67432V4.9375H2.67432Z"
              fill="#160F46"
            />
          </svg>