<svg width="800" height="800" viewBox="0 0 15 15" xmlns="http://www.w3.org/2000/svg" xmlns:xlink="http://www.w3.org/1999/xlink" fill="#6356d8" overflow="hidden"><path d="M8.69666 0.040354C8.90859 0.131038 9.03105 0.354856 8.99315 0.582235L8.09019 6.00001 12.4999 6.00001C12.6893 6.00001 12.8625 6.10701 12.9472 6.2764 13.0318 6.44579 13.0136 6.6485 12.8999 6.8L6.89997 14.8C6.76166 14.9844 6.5152 15.0503 6.30327 14.9596 6.09134 14.869 5.96888 14.6451 6.00678 14.4178L6.90974 8.99999 2.49999 8.99999C2.31061 8.99999 2.13747 8.89299 2.05278 8.7236 1.96808 8.55421 1.98636 8.3515 2.09999 8.2L8.09996 0.200037C8.23827 0.0156255 8.48473-0.0503301 8.69666 0.040354ZM3.49999 8 7.49996 8C7.64694 8 7.78647 8.06466 7.88147 8.17681 7.97647 8.28895 8.01732 8.43722 7.99316 8.58219L7.33026 12.5596 11.4999 7 7.49996 7C7.35299 7 7.21346 6.93534 7.11846 6.82319 7.02346 6.71105 6.98261 6.56278 7.00677 6.41781L7.66967 2.44042 3.49999 8Z" fill="#6356d8" fill-rule="evenodd" clip-rule="evenodd"/></svg>