<svg
    width="811"
    height="473"
    viewBox="0 0 811 473"
    fill="none"
    xmlns="http://www.w3.org/2000/svg"
>
    <path
        d="M807.174 0.113249L804.288 3L807.174 5.88675L810.061 3L807.174 0.113249ZM3.39654 473L6.17594 467.94L0.403752 468.063L3.39654 473ZM3.7971 467.187C3.78235 465.971 3.76913 464.664 3.75735 463.274L2.75738 463.282C2.76918 464.673 2.7824 465.982 2.79718 467.199L3.7971 467.187ZM3.72915 459.361C3.72156 458.114 3.71486 456.817 3.70899 455.474L2.709 455.478C2.71487 456.822 2.72158 458.12 2.72917 459.367L3.72915 459.361ZM3.69459 451.578C3.6907 450.31 3.68741 449.009 3.6847 447.678L2.6847 447.68C2.68742 449.011 2.6907 450.312 2.6946 451.581L3.69459 451.578ZM3.67843 443.775C3.67689 442.499 3.67581 441.2 3.67514 439.881L2.67514 439.882C2.67581 441.201 2.67689 442.5 2.67843 443.776L3.67843 443.775ZM3.67434 435.991C3.67444 434.708 3.67488 433.409 3.67564 432.096L2.67564 432.096C2.67488 433.409 2.67444 434.708 2.67434 435.99L3.67434 435.991ZM3.67876 428.198C3.68006 426.908 3.68163 425.607 3.68345 424.296L2.68345 424.295C2.68163 425.606 2.68006 426.907 2.67876 428.197L3.67876 428.198ZM3.6895 420.393C3.69171 419.102 3.69412 417.803 3.69673 416.498L2.69673 416.496C2.69413 417.801 2.69171 419.1 2.6895 420.392L3.6895 420.393ZM3.70499 412.602C3.70789 411.306 3.71095 410.006 3.71415 408.703L2.71416 408.701C2.71096 410.003 2.70789 411.303 2.70499 412.6L3.70499 412.602ZM3.7241 404.804C3.72754 403.505 3.73108 402.205 3.73472 400.906L2.73472 400.903C2.73109 402.202 2.72754 403.502 2.72411 404.801L3.7241 404.804ZM3.74591 397.007C3.74973 395.704 3.75363 394.404 3.75757 393.107L2.75758 393.104C2.75363 394.401 2.74974 395.701 2.74591 397.004L3.74591 397.007ZM3.7696 389.209C3.77368 387.904 3.77779 386.606 3.78191 385.314L2.78191 385.311C2.7778 386.603 2.77369 387.901 2.76961 389.206L3.7696 389.209ZM3.7944 381.418C3.79862 380.106 3.80282 378.804 3.80699 377.514L2.80699 377.511C2.80283 378.801 2.79862 380.103 2.7944 381.414L3.7944 381.418ZM3.81954 373.612C3.82375 372.297 3.82789 370.997 3.83193 369.713L2.83193 369.71C2.8279 370.994 2.82376 372.294 2.81955 373.609L3.81954 373.612ZM3.84401 365.817C3.84803 364.498 3.8519 363.2 3.85561 361.924L2.85561 361.921C2.85191 363.197 2.84803 364.495 2.84401 365.814L3.84401 365.817ZM3.86652 358.031C3.8701 356.702 3.87344 355.402 3.87649 354.136L2.87649 354.134C2.87344 355.4 2.87011 356.699 2.86653 358.028L3.86652 358.031ZM3.88513 350.236C3.88783 348.885 3.89011 347.581 3.89191 346.328L2.89191 346.327C2.89012 347.58 2.88784 348.883 2.88513 350.234L3.88513 350.236ZM3.89596 342.416C3.89634 341.759 3.89654 341.12 3.89654 340.5H2.89654C2.89654 341.119 2.89634 341.758 2.89596 342.416L3.89596 342.416ZM3.89654 340.5C3.89654 339.817 3.90065 339.139 3.90882 338.466L2.9089 338.454C2.90068 339.131 2.89654 339.813 2.89654 340.5H3.89654ZM4.00609 334.481C4.05504 333.154 4.12015 331.847 4.20097 330.558L3.20293 330.495C3.12157 331.793 3.05603 333.109 3.00677 334.444L4.00609 334.481ZM4.50697 326.557C4.62612 325.242 4.76209 323.946 4.91434 322.671L3.92139 322.552C3.768 323.837 3.63104 325.142 3.51104 326.467L4.50697 326.557ZM5.45237 318.683C5.64954 317.376 5.86435 316.09 6.09613 314.826L5.11252 314.646C4.87882 315.92 4.66228 317.216 4.46355 318.534L5.45237 318.683ZM6.88772 310.887C7.17116 309.593 7.47296 308.322 7.79236 307.075L6.82362 306.827C6.50129 308.086 6.19679 309.368 5.91087 310.673L6.88772 310.887ZM8.8584 303.214C9.23702 301.938 9.63467 300.687 10.0504 299.462L9.10346 299.141C8.68352 300.378 8.28196 301.641 7.89969 302.93L8.8584 303.214ZM11.4053 295.721C11.8869 294.473 12.3879 293.252 12.9072 292.059L11.9903 291.66C11.4653 292.866 10.9589 294.1 10.4722 295.361L11.4053 295.721ZM14.5595 288.478C15.1497 287.27 15.7593 286.091 16.3869 284.943L15.5094 284.463C14.8744 285.625 14.2578 286.817 13.6609 288.039L14.5595 288.478ZM18.3571 281.527C19.0522 280.385 19.7656 279.274 20.4958 278.193L19.6673 277.633C18.9282 278.727 18.2062 279.851 17.5027 281.008L18.3571 281.527ZM22.7967 274.962C23.5949 273.896 24.4099 272.864 25.2397 271.862L24.4698 271.224C23.6296 272.238 22.8045 273.284 21.9964 274.362L22.7967 274.962ZM27.8377 268.881C28.741 267.894 29.6589 266.941 30.5893 266.021L29.886 265.31C28.9441 266.242 28.0148 267.206 27.1002 268.205L27.8377 268.881ZM33.4692 263.309C34.4594 262.421 35.4608 261.567 36.4712 260.745L35.8404 259.969C34.8177 260.801 33.804 261.665 32.8016 262.564L33.4692 263.309ZM39.6046 258.32C40.6809 257.527 41.7644 256.768 42.8526 256.042L42.2977 255.21C41.1968 255.945 40.1005 256.712 39.0114 257.515L39.6046 258.32ZM46.1977 253.92C47.341 253.23 48.4865 252.575 49.6312 251.952L49.1531 251.073C47.9959 251.703 46.8376 252.366 45.6812 253.064L46.1977 253.92ZM53.1444 250.137C54.3464 249.548 55.544 248.993 56.7337 248.471L56.3315 247.555C55.1295 248.083 53.9193 248.643 52.7044 249.239L53.1444 250.137ZM60.4005 246.949C61.6565 246.457 62.899 246 64.1236 245.575L63.796 244.63C62.5593 245.059 61.3045 245.521 60.0359 246.017L60.4005 246.949ZM67.8959 244.348C69.1962 243.952 70.4694 243.593 71.7097 243.266L71.4548 242.299C70.2028 242.629 68.9175 242.992 67.6047 243.391L67.8959 244.348ZM75.5557 242.328C76.9043 242.025 78.2002 241.762 79.4344 241.533L79.2519 240.55C78.0061 240.781 76.698 241.047 75.3368 241.352L75.5557 242.328ZM83.3745 240.879C84.807 240.67 86.1132 240.511 87.272 240.389L87.1677 239.395C85.9962 239.518 84.6766 239.679 83.23 239.89L83.3745 240.879ZM91.2452 240.068C91.872 240.034 92.3564 240.017 92.683 240.008C92.8463 240.004 92.9701 240.002 93.0527 240.001C93.0939 240.001 93.1249 240 93.1452 240C93.1554 240 93.1629 240 93.1678 240C93.1702 240 93.172 240 93.1731 240C93.1736 240 93.174 240 93.1742 240C93.1743 240 93.1744 240 93.1744 240C93.1744 240 93.1744 240 93.1744 240C93.1744 240 93.1744 240 93.1744 240C93.1743 240 93.1743 240 93.1743 239.5C93.1743 239 93.1743 239 93.1743 239C93.1742 239 93.1742 239 93.1742 239C93.1741 239 93.1741 239 93.174 239C93.1739 239 93.1737 239 93.1734 239C93.173 239 93.1723 239 93.1715 239C93.1699 239 93.1676 239 93.1647 239C93.1588 239 93.1502 239 93.139 239C93.1165 239 93.0835 239.001 93.04 239.001C92.9532 239.002 92.8249 239.004 92.6572 239.009C92.3216 239.017 91.8278 239.035 91.1911 239.069L91.2452 240.068ZM93.1743 240H95.1753V239H93.1743V240ZM99.1772 240H103.179V239H99.1772V240ZM107.181 240H111.183V239H107.181V240ZM115.185 240H119.187V239H115.185V240ZM123.189 240H127.19V239H123.189V240ZM131.192 240H135.194V239H131.192V240ZM139.196 240H143.198V239H139.196V240ZM147.2 240H151.202V239H147.2V240ZM155.204 240H159.206V239H155.204V240ZM163.208 240H167.21V239H163.208V240ZM171.211 240H175.213V239H171.211V240ZM179.215 240H183.217V239H179.215V240ZM187.219 240H191.221V239H187.219V240ZM195.223 240H199.225V239H195.223V240ZM203.227 240H207.229V239H203.227V240ZM211.23 240H215.232V239H211.23V240ZM219.234 240H223.236V239H219.234V240ZM227.238 240H231.24V239H227.238V240ZM235.242 240H239.244V239H235.242V240ZM243.246 240H247.248V239H243.246V240ZM251.249 240H255.251V239H251.249V240ZM259.253 240H263.255V239H259.253V240ZM267.257 240H271.259V239H267.257V240ZM275.261 240H279.263V239H275.261V240ZM283.265 240H287.267V239H283.265V240ZM291.269 240H295.27V239H291.269V240ZM299.272 240H303.274V239H299.272V240ZM307.276 240H311.278V239H307.276V240ZM315.28 240H319.282V239H315.28V240ZM323.284 240H327.286V239H323.284V240ZM331.288 240H335.29V239H331.288V240ZM339.291 240H343.293V239H339.291V240ZM347.295 240H351.297V239H347.295V240ZM355.299 240H359.301V239H355.299V240ZM363.303 240H367.305V239H363.303V240ZM371.307 240H375.309V239H371.307V240ZM379.31 240H383.312V239H379.31V240ZM387.314 240H391.316V239H387.314V240ZM395.318 240H399.32V239H395.318V240ZM403.322 240H407.324V239H403.322V240ZM411.326 240H415.327V239H411.326V240ZM419.329 240H423.331V239H419.329V240ZM427.333 240H431.335V239H427.333V240ZM435.337 240H439.339V239H435.337V240ZM443.341 240H447.343V239H443.341V240ZM451.344 240H455.346V239H451.344V240ZM459.348 240H463.35V239H459.348V240ZM467.352 240H471.354V239H467.352V240ZM475.356 240H479.358V239H475.356V240ZM483.36 240H487.361V239H483.36V240ZM491.363 240H495.365V239H491.363V240ZM499.367 240H503.369V239H499.367V240ZM507.371 240H511.373V239H507.371V240ZM515.375 240H519.377V239H515.375V240ZM523.379 240H527.38V239H523.379V240ZM531.382 240H535.384V239H531.382V240ZM539.386 240H543.388V239H539.386V240ZM547.39 240H551.392V239H547.39V240ZM555.394 240H559.396V239H555.394V240ZM563.397 240H567.399V239H563.397V240ZM571.401 240H575.403V239H571.401V240ZM579.405 240H583.407V239H579.405V240ZM587.409 240H591.411V239H587.409V240ZM595.413 240H599.414V239H595.413V240ZM603.416 240H607.418V239H603.416V240ZM611.42 240H615.422V239H611.42V240ZM619.424 240H623.426V239H619.424V240ZM627.428 240H631.43V239H627.428V240ZM635.432 240H639.433V239H635.432V240ZM643.435 240H647.437V239H643.435V240ZM651.439 240H655.441V239H651.439V240ZM659.443 240H663.445V239H659.443V240ZM667.447 240H671.449V239H667.447V240ZM675.45 240H677.452V239H675.45V240ZM677.452 239.5C677.452 240 677.452 240 677.452 240C677.452 240 677.452 240 677.452 240C677.452 240 677.452 240 677.452 240C677.452 240 677.453 240 677.453 240C677.453 240 677.454 240 677.455 240C677.456 240 677.458 240 677.461 240C677.467 240 677.475 240 677.486 240C677.507 240 677.539 240 677.582 239.999C677.666 239.999 677.791 239.997 677.956 239.995C678.285 239.989 678.772 239.979 679.404 239.957L679.37 238.958C678.744 238.979 678.264 238.99 677.94 238.995C677.778 238.997 677.655 238.999 677.574 238.999C677.533 239 677.502 239 677.482 239C677.471 239 677.464 239 677.459 239C677.457 239 677.455 239 677.454 239C677.453 239 677.453 239 677.452 239C677.452 239 677.452 239 677.452 239C677.452 239 677.452 239 677.452 239.5ZM683.457 239.754C684.635 239.678 685.968 239.578 687.439 239.448L687.351 238.452C685.888 238.581 684.563 238.68 683.393 238.756L683.457 239.754ZM691.444 239.048C692.709 238.908 694.043 238.747 695.439 238.563L695.308 237.571C693.919 237.755 692.592 237.915 691.334 238.054L691.444 239.048ZM699.427 237.994C700.716 237.796 702.046 237.58 703.413 237.341L703.241 236.356C701.881 236.593 700.558 236.809 699.276 237.005L699.427 237.994ZM707.382 236.607C708.661 236.357 709.966 236.088 711.294 235.799L711.082 234.822C709.761 235.109 708.462 235.377 707.19 235.626L707.382 236.607ZM715.214 234.903C716.504 234.594 717.811 234.266 719.134 233.918L718.879 232.95C717.564 233.297 716.263 233.623 714.98 233.931L715.214 234.903ZM722.999 232.854C724.272 232.488 725.555 232.103 726.847 231.699L726.549 230.745C725.264 231.146 723.988 231.529 722.723 231.892L722.999 232.854ZM730.689 230.447C731.944 230.021 733.204 229.576 734.468 229.111L734.123 228.173C732.867 228.634 731.615 229.076 730.368 229.5L730.689 230.447ZM738.228 227.674C739.469 227.182 740.712 226.669 741.956 226.136L741.562 225.217C740.327 225.746 739.092 226.256 737.859 226.745L738.228 227.674ZM745.622 224.504C746.837 223.942 748.05 223.361 749.259 222.758L748.814 221.863C747.613 222.461 746.409 223.039 745.203 223.596L745.622 224.504ZM752.829 220.913C754.007 220.281 755.18 219.628 756.347 218.954L755.847 218.088C754.689 218.757 753.525 219.404 752.356 220.031L752.829 220.913ZM759.803 216.88C760.937 216.175 762.063 215.447 763.18 214.697L762.623 213.867C761.515 214.61 760.399 215.331 759.274 216.031L759.803 216.88ZM766.492 212.389C767.573 211.606 768.644 210.802 769.703 209.974L769.088 209.186C768.038 210.006 766.977 210.803 765.906 211.579L766.492 212.389ZM772.834 207.431C773.855 206.569 774.864 205.684 775.858 204.775L775.183 204.037C774.199 204.936 773.2 205.813 772.189 206.667L772.834 207.431ZM778.777 201.998C779.728 201.056 780.663 200.091 781.583 199.101L780.85 198.421C779.94 199.4 779.014 200.355 778.073 201.287L778.777 201.998ZM784.259 196.097C785.129 195.078 785.982 194.036 786.817 192.969L786.029 192.353C785.204 193.408 784.36 194.44 783.499 195.448L784.259 196.097ZM789.223 189.753C790.003 188.662 790.765 187.547 791.506 186.408L790.668 185.862C789.934 186.989 789.181 188.092 788.41 189.171L789.223 189.753ZM793.619 183.002C794.302 181.846 794.965 180.667 795.606 179.464L794.724 178.993C794.089 180.184 793.433 181.35 792.758 182.494L793.619 183.002ZM797.412 175.897C797.993 174.686 798.553 173.452 799.091 172.195L798.171 171.802C797.639 173.046 797.085 174.266 796.51 175.464L797.412 175.897ZM800.585 168.495C801.061 167.241 801.517 165.965 801.95 164.667L801.002 164.35C800.573 165.636 800.122 166.899 799.65 168.14L800.585 168.495ZM803.139 160.859C803.512 159.575 803.865 158.27 804.195 156.943L803.225 156.702C802.897 158.015 802.548 159.308 802.178 160.58L803.139 160.859ZM805.091 153.046C805.365 151.744 805.619 150.423 805.851 149.082L804.866 148.912C804.635 150.241 804.384 151.55 804.112 152.84L805.091 153.046ZM806.471 145.101C806.652 143.795 806.813 142.471 806.954 141.128L805.959 141.024C805.82 142.355 805.66 143.669 805.481 144.964L806.471 145.101ZM807.315 137.059C807.41 135.759 807.487 134.443 807.544 133.11L806.545 133.067C806.488 134.39 806.412 135.696 806.318 136.986L807.315 137.059ZM807.66 129.062C807.669 128.379 807.674 127.691 807.674 127H806.674C806.674 127.687 806.669 128.369 806.66 129.047L807.66 129.062ZM807.674 127V125.062H806.674V127H807.674ZM807.674 121.188V117.312H806.674V121.188H807.674ZM807.674 113.438V109.562H806.674V113.438H807.674ZM807.674 105.688V101.812H806.674V105.688H807.674ZM807.674 97.9375V94.0625H806.674V97.9375H807.674ZM807.674 90.1875V86.3125H806.674V90.1875H807.674ZM807.674 82.4375V78.5625H806.674V82.4375H807.674ZM807.674 74.6875V70.8125H806.674V74.6875H807.674ZM807.674 66.9375V63.0625H806.674V66.9375H807.674ZM807.674 59.1875V55.3125H806.674V59.1875H807.674ZM807.674 51.4375V47.5625H806.674V51.4375H807.674ZM807.674 43.6875V39.8125H806.674V43.6875H807.674ZM807.674 35.9375V32.0625H806.674V35.9375H807.674ZM807.674 28.1875V24.3125H806.674V28.1875H807.674ZM807.674 20.4375V16.5625H806.674V20.4375H807.674ZM807.674 12.6875V8.8125H806.674V12.6875H807.674ZM807.674 4.9375V3H806.674V4.9375H807.674Z"
        fill="black"
    />
</svg>