<svg width="800" height="800" viewBox="0 0 24 24" xmlns="http://www.w3.org/2000/svg" xmlns:xlink="http://www.w3.org/1999/xlink" overflow="hidden"><path d="M20.5 7.9C20.5 7.9 14.7 5 13.6 4.4 12.5 3.8 11.9 3.7 10.6 4.4 9.3 5 3.9 7.7 3.9 7.7 3.1 8.1 2.4 8.9 2.4 9.7 2.4 10.5 2.6 10.9 2.6 10.9 2.6 10.9 2.5 11.2 2.3 12.4 2 13.6 2 15.1 2 15.7 2 17.2 3.3 18.3 4.2 18.4 5.1 18.5 5.8 18.3 5.8 18.3 7.2 19.6 9.5 20.4 12.2 20.4 16.6 20.4 20 18.2 20 15.4 20 14.3 19.6 12.7 19.6 12.7L20.7 12.1C21.6 11.6 22 10.7 22 9.8 21.9 9 21.4 8.3 20.5 7.9ZM12.3 18.3C9.1 18.3 6.5 17 6.5 15.3L7 12.5 11.2 14.6C11.8 14.9 12.7 14.9 13.4 14.6L17.7 12.5 18.1 15.3C18.1 16.9 15.6 18.3 12.3 18.3ZM19.6 10.2 13 13.6C12.6 13.8 12 13.8 11.6 13.6L5.9 10.7C5.7 11.2 5.6 11.9 5.6 12.7 5.6 14.1 5.8 15.1 5.8 15.6 5.8 16.1 5.5 16.4 5.1 16.4L5 16.4C4.6 16.4 4.2 16.1 4.2 15.6 4.2 15.1 4.2 14 4.5 12.5 4.7 11.6 4.9 10.8 5.1 10.3L4.9 10.2C4.5 10 4.5 9.7 4.9 9.5L11.6 6.1C12 5.9 12.5 5.9 12.9 6.1 13.3 6.3 19.6 9.5 19.6 9.5 20 9.7 20 10 19.6 10.2Z" fill="#6356d8"/></svg>