<svg width="800" height="800" viewBox="0 0 538.229 538.229" xmlns="http://www.w3.org/2000/svg" xmlns:xlink="http://www.w3.org/1999/xlink" id="Capa_1" xml:space="preserve" overflow="hidden"><g><g><path d="M62.634 538.229 475.596 538.229C506.131 538.229 530.979 513.384 530.979 482.846L530.979 325.012C530.979 294.476 506.135 269.629 475.596 269.629L418.071 269.629C420.096 265.861 422.009 262.003 423.794 258.049 448.124 250.053 465.55 227.112 465.55 200.426 465.55 179.633 454.978 160.719 438.152 149.694 424.495 63.495 354.557 0 270.732 0 186.906 0 116.97 63.495 103.31 149.698 86.483 160.723 75.911 179.634 75.911 200.429 75.911 227.116 93.338 250.056 117.668 258.052 119.455 262.005 121.364 265.864 123.39 269.631L62.634 269.631C32.098 269.631 7.251 294.475 7.251 325.014L7.251 482.85C7.254 513.385 32.098 538.229 62.634 538.229ZM121.811 200.43C121.811 194.09 125.859 188.466 131.888 186.433L146.068 181.657 147.418 166.758C153.663 97.858 206.674 45.9 270.732 45.9 334.79 45.9 387.801 97.856 394.047 166.757L395.397 181.656 409.577 186.432C415.604 188.464 419.653 194.085 419.653 200.429 419.653 208.199 413.569 214.661 405.801 215.144L390.91 216.068 385.711 230.049C366.703 281.145 321.574 314.16 270.734 314.16 219.895 314.16 174.766 281.145 155.758 230.049L150.559 216.068 135.663 215.144C127.894 214.665 121.811 208.199 121.811 200.43ZM53.154 325.015C53.154 319.788 57.407 315.532 62.637 315.532L149.407 315.532C149.936 315.691 150.71 316.028 151.13 316.288 183.805 344.964 225.687 360.75 269.117 360.75 312.548 360.75 354.433 344.964 387.107 316.285 387.531 316.028 388.304 315.691 388.832 315.532L475.598 315.532C480.827 315.532 485.08 319.786 485.08 325.015L485.08 482.85C485.08 488.077 480.826 492.332 475.598 492.332L62.634 492.332C57.405 492.332 53.151 488.079 53.151 482.85L53.151 325.015 53.154 325.015Z" fill="#6356d8"/></g></g></svg>